<?xml version="1.0" encoding="iso-8859-1"?>
<!-- Generator: Adobe Illustrator 19.0.0, SVG Export Plug-In . SVG Version: 6.00 Build 0)  -->
<svg version="1.1" id="Capa_1" xmlns="http://www.w3.org/2000/svg" xmlns:xlink="http://www.w3.org/1999/xlink" x="0px" y="0px"
	 viewBox="0 0 512 512" style="enable-background:new 0 0 512 512;" xml:space="preserve">
<g>
	<g>
		<path d="M336,120c-5.52,0-10,4.48-10,10s4.48,10,10,10c5.52,0,10-4.48,10-10S341.52,120,336,120z"/>
	</g>
</g>
<g>
	<g>
		<path d="M296,120H176c-5.523,0-10,4.478-10,10c0,5.522,4.477,10,10,10h120c5.522,0,10-4.478,10-10
			C306,124.478,301.522,120,296,120z"/>
	</g>
</g>
<g>
	<g>
		<path d="M456,60h-30V30c0-16.542-13.458-30-30-30s-30,13.458-30,30v30H146V30c0-16.542-13.458-30-30-30S86,13.458,86,30v30H56
			c-16.542,0-30,13.458-30,30v392c0,16.542,13.458,30,30,30h400c16.542,0,30-13.458,30-30V90C486,73.458,472.542,60,456,60z M386,30
			c0-5.514,4.486-10,10-10c5.514,0,10,4.486,10,10v60c0,5.52-4.479,10-10,10c-5.514,0-10-4.486-10-10V30z M106,30
			c0-5.514,4.486-10,10-10s10,4.486,10,10v60c0,5.521-4.479,10-10,10c-5.514,0-10-4.486-10-10V30z M466,482c0,5.514-4.486,10-10,10
			H56c-5.514,0-10-4.486-10-10V180h420V482z M466,160H46V90c0-5.514,4.486-10,10-10h30v10c0,16.542,13.458,30,30,30
			c16.575,0,30-13.424,30-30V80h220v10c0,16.542,13.458,30,30,30c16.575,0,30-13.425,30-30V80h30c5.514,0,10,4.486,10,10V160z"/>
	</g>
</g>
<g>
	<g>
		<path d="M176,226H96c-5.523,0-10,4.478-10,10v40c0,5.522,4.477,10,10,10h80c5.523,0,10-4.478,10-10v-40
			C186,230.478,181.523,226,176,226z M166,266h-60v-20h60V266z"/>
	</g>
</g>
<g>
	<g>
		<path d="M296,226h-80c-5.523,0-10,4.478-10,10v40c0,5.522,4.477,10,10,10h80c5.522,0,10-4.478,10-10v-40
			C306,230.478,301.522,226,296,226z M286,266h-60v-20h60V266z"/>
	</g>
</g>
<g>
	<g>
		<path d="M416,226h-80c-5.522,0-10,4.478-10,10v40c0,5.522,4.478,10,10,10h80c5.522,0,10-4.478,10-10v-40
			C426,230.478,421.522,226,416,226z M406,266h-60v-20h60V266z"/>
	</g>
</g>
<g>
	<g>
		<path d="M176,306H96c-5.523,0-10,4.478-10,10v40c0,5.522,4.477,10,10,10h80c5.523,0,10-4.478,10-10v-40
			C186,310.478,181.523,306,176,306z M166,346h-60v-20h60V346z"/>
	</g>
</g>
<g>
	<g>
		<path d="M296,306h-80c-5.523,0-10,4.478-10,10v40c0,5.522,4.477,10,10,10h80c5.522,0,10-4.478,10-10v-40
			C306,310.478,301.522,306,296,306z M286,346h-60v-20h60V346z"/>
	</g>
</g>
<g>
	<g>
		<path d="M416,306h-80c-5.522,0-10,4.478-10,10v40c0,5.522,4.478,10,10,10h80c5.522,0,10-4.478,10-10v-40
			C426,310.478,421.522,306,416,306z M406,346h-60v-20h60V346z"/>
	</g>
</g>
<g>
	<g>
		<path d="M176,386H96c-5.523,0-10,4.478-10,10v40c0,5.522,4.477,10,10,10h80c5.523,0,10-4.478,10-10v-40
			C186,390.478,181.523,386,176,386z M166,426h-60v-20h60V426z"/>
	</g>
</g>
<g>
	<g>
		<path d="M296,386h-80c-5.523,0-10,4.478-10,10v40c0,5.522,4.477,10,10,10h80c5.522,0,10-4.478,10-10v-40
			C306,390.478,301.522,386,296,386z M286,426h-60v-20h60V426z"/>
	</g>
</g>
<g>
	<g>
		<path d="M416,386h-80c-5.522,0-10,4.478-10,10v40c0,5.522,4.478,10,10,10h80c5.522,0,10-4.478,10-10v-40
			C426,390.478,421.522,386,416,386z M406,426h-60v-20h60V426z"/>
	</g>
</g>
<g>
</g>
<g>
</g>
<g>
</g>
<g>
</g>
<g>
</g>
<g>
</g>
<g>
</g>
<g>
</g>
<g>
</g>
<g>
</g>
<g>
</g>
<g>
</g>
<g>
</g>
<g>
</g>
<g>
</g>
</svg>
